<svg width="70" height="70" viewBox="0 0 70 70" fill="none" xmlns="http://www.w3.org/2000/svg">
<path d="M39.9904 65.1111C33.3287 67.0494 26.6574 65.1111 20.322 60.9921C9.19676 53.7234 6.76821 39.6706 12.9692 28.0406C19.5061 15.8389 34.087 12.4274 45.8266 19.5701C48.2082 21.0077 50.3309 22.8428 52.1043 24.9974C53.3268 26.5129 54.9489 27.6483 56.7833 28.2725C58.6177 28.8967 60.5896 28.9843 62.4713 28.5252L62.7976 28.438C63.804 28.1896 64.741 27.7126 65.5371 27.0432C66.3332 26.3738 66.9674 25.5298 67.3915 24.5754C67.8155 23.621 68.0181 22.5815 67.9839 21.536C67.9497 20.4906 67.6795 19.4668 67.194 18.5428C64.2145 12.9239 59.7703 8.2343 54.3419 4.98118C48.9136 1.72805 42.7076 0.0351995 36.3952 0.0856921C30.0828 0.136185 23.9042 1.9281 18.5276 5.26765C13.151 8.60721 8.7809 13.3673 5.89001 19.0332C2.99912 24.6991 1.69742 31.0551 2.12568 37.4139C2.55394 43.7727 4.69586 49.8923 8.31981 55.1109C11.9438 60.3295 16.9118 64.4485 22.6867 67.0224C28.4616 69.5964 34.8236 70.5273 41.0847 69.7146C41.3949 69.6684 41.6926 69.5587 41.9594 69.3922C42.2262 69.2257 42.4566 69.006 42.6363 68.7465C42.8161 68.487 42.9414 68.1932 43.0047 67.883C43.068 67.5728 43.0679 67.2529 43.0045 66.9428C42.9368 66.6165 42.8032 66.3077 42.612 66.0359C42.4208 65.7641 42.1761 65.5351 41.8931 65.3632C41.6102 65.1912 41.2952 65.0801 40.9678 65.0367C40.6404 64.9933 40.3076 65.0187 39.9904 65.1111Z" fill="url(#paint0_linear_13_151)"/>
<path style="mix-blend-mode:multiply" opacity="0.6" d="M39.9904 65.1111C33.3287 67.0494 26.6574 65.1111 20.322 60.9921C9.19676 53.7234 6.76821 39.6706 12.9692 28.0406C19.5061 15.8389 34.087 12.4274 45.8266 19.5701C48.2082 21.0077 50.3309 22.8428 52.1043 24.9974C53.3268 26.5129 54.9489 27.6483 56.7833 28.2725C58.6177 28.8967 60.5896 28.9843 62.4713 28.5252L62.7976 28.438C63.804 28.1896 64.741 27.7126 65.5371 27.0432C66.3332 26.3738 66.9674 25.5298 67.3915 24.5754C67.8155 23.621 68.0181 22.5815 67.9839 21.536C67.9497 20.4906 67.6795 19.4668 67.194 18.5428C64.2145 12.9239 59.7703 8.2343 54.3419 4.98118C48.9136 1.72805 42.7076 0.0351995 36.3952 0.0856921C30.0828 0.136185 23.9042 1.9281 18.5276 5.26765C13.151 8.60721 8.7809 13.3673 5.89001 19.0332C2.99912 24.6991 1.69742 31.0551 2.12568 37.4139C2.55394 43.7727 4.69586 49.8923 8.31981 55.1109C11.9438 60.3295 16.9118 64.4485 22.6867 67.0224C28.4616 69.5964 34.8236 70.5273 41.0847 69.7146C41.3949 69.6684 41.6926 69.5587 41.9594 69.3922C42.2262 69.2257 42.4566 69.006 42.6363 68.7465C42.8161 68.487 42.9414 68.1932 43.0047 67.883C43.068 67.5728 43.0679 67.2529 43.0045 66.9428C42.9368 66.6165 42.8032 66.3077 42.612 66.0359C42.4208 65.7641 42.1761 65.5351 41.8931 65.3632C41.6102 65.1912 41.2952 65.0801 40.9678 65.0367C40.6404 64.9933 40.3076 65.0187 39.9904 65.1111Z" fill="url(#paint1_linear_13_151)"/>
<path d="M11.7291 28.2344C15.1349 22.5452 20.6294 18.4454 27.0157 16.828C33.402 15.2106 40.1626 16.2066 45.8248 19.5992C48.2064 21.0367 50.3291 22.8719 52.1025 25.0265C53.325 26.5419 54.9471 27.6773 56.7815 28.3016C58.6159 28.9258 60.5878 29.0134 62.4694 28.5542L62.7958 28.467C63.8062 28.2199 64.7471 27.7424 65.5464 27.071C66.3456 26.3997 66.9818 25.5524 67.4063 24.5943C67.8308 23.6361 68.0322 22.5924 67.995 21.5434C67.9579 20.4944 67.6833 19.468 67.1922 18.5428C64.3657 13.2138 60.2189 8.71591 55.1566 5.48823C50.0943 2.26056 44.2895 0.413435 38.309 0.1272C32.3285 -0.159035 26.3767 1.1254 21.0347 3.85511C15.6927 6.58482 11.143 10.6665 7.82996 15.7016C4.5169 20.7368 2.55366 26.5533 2.13192 32.5832C1.71017 38.6132 2.84433 44.6505 5.42368 50.1058C8.00302 55.561 11.9394 60.2477 16.8484 63.7083C21.7575 67.1689 27.4715 69.2851 33.4324 69.8503C4.30905 64.5586 6.18085 37.4124 11.7291 28.2344Z" fill="url(#paint2_linear_13_151)"/>
<path style="mix-blend-mode:multiply" opacity="0.6" d="M11.7291 28.2344C15.1349 22.5452 20.6294 18.4454 27.0157 16.828C33.402 15.2106 40.1626 16.2066 45.8248 19.5992C48.2064 21.0367 50.3291 22.8719 52.1025 25.0265C53.325 26.5419 54.9471 27.6773 56.7815 28.3016C58.6159 28.9258 60.5878 29.0134 62.4694 28.5542L62.7958 28.467C63.8062 28.2199 64.7471 27.7424 65.5464 27.071C66.3456 26.3997 66.9818 25.5524 67.4063 24.5943C67.8308 23.6361 68.0322 22.5924 67.995 21.5434C67.9579 20.4944 67.6833 19.468 67.1922 18.5428C64.3657 13.2138 60.2189 8.71591 55.1566 5.48823C50.0943 2.26056 44.2895 0.413435 38.309 0.1272C32.3285 -0.159035 26.3767 1.1254 21.0347 3.85511C15.6927 6.58482 11.143 10.6665 7.82996 15.7016C4.5169 20.7368 2.55366 26.5533 2.13192 32.5832C1.71017 38.6132 2.84433 44.6505 5.42368 50.1058C8.00302 55.561 11.9394 60.2477 16.8484 63.7083C21.7575 67.1689 27.4715 69.2851 33.4324 69.8503C4.30905 64.5586 6.18085 37.4124 11.7291 28.2344Z" fill="url(#paint3_linear_13_151)"/>
<path d="M27.952 11.2256C42.3505 10.7507 49.185 19.1243 52.7271 24.6098C53.7206 26.232 55.2026 27.4902 56.956 28.2C58.7093 28.9099 60.6418 29.034 62.4701 28.5543L62.7964 28.467C63.8068 28.2199 64.7478 27.7424 65.547 27.0711C66.3462 26.3997 66.9824 25.5525 67.4069 24.5943C67.8314 23.6361 68.0328 22.5924 67.9957 21.5434C67.9585 20.4944 67.6839 19.468 67.1928 18.5428C63.5123 11.5559 57.5928 6.03653 50.4022 2.8873C43.2115 -0.261939 35.1754 -0.854682 27.6078 1.206C20.0402 3.26668 13.389 7.85884 8.7419 14.2315C4.0948 20.6042 1.72679 28.3803 2.0251 36.2882C1.74673 21.838 13.5247 11.7005 27.952 11.2256Z" fill="url(#paint4_linear_13_151)"/>
<path d="M62.7962 27.178L62.4698 27.2556C60.6415 27.7353 58.7091 27.6112 56.9557 26.9013C55.2024 26.1915 53.7203 24.9333 52.7268 23.3111C49.1848 17.8353 42.3695 9.46174 27.9518 9.92694C13.5341 10.3921 1.74649 20.5877 2.03446 34.9895C2.03446 34.786 2.03446 34.5727 2.03446 34.3692C2.03446 35.0089 2.03446 35.6485 2.03446 36.3075C1.75609 21.8573 13.5533 11.7199 27.9518 11.245C42.3503 10.7701 49.1848 19.1243 52.7268 24.6098C53.7203 26.2319 55.2024 27.4902 56.9557 28.2C58.7091 28.9099 60.6415 29.034 62.4698 28.5542L62.7962 28.467C64.3764 28.0685 65.7628 27.111 66.7033 25.7683C67.6439 24.4257 68.0763 22.787 67.9221 21.1498C67.7912 22.5669 67.2277 23.9079 66.3095 24.9877C65.3913 26.0676 64.1637 26.8329 62.7962 27.178Z" fill="url(#paint5_linear_13_151)"/>
<path d="M49.9804 65.3534C49.9804 65.8537 49.8335 66.3427 49.5582 66.7587C49.2829 67.1747 48.8916 67.4989 48.4338 67.6903C47.976 67.8818 47.4723 67.9319 46.9863 67.8343C46.5003 67.7367 46.0539 67.4958 45.7035 67.142C45.3531 66.7882 45.1145 66.3375 45.0179 65.8469C44.9212 65.3562 44.9708 64.8476 45.1604 64.3854C45.3501 63.9232 45.6712 63.5281 46.0832 63.2502C46.4952 62.9722 46.9796 62.8239 47.4751 62.8239C48.1395 62.8239 48.7768 63.0904 49.2466 63.5647C49.7165 64.0391 49.9804 64.6825 49.9804 65.3534Z" fill="url(#paint6_linear_13_151)"/>
<path d="M39.9883 65.1111C33.3266 67.0494 26.6553 65.1111 20.32 60.9921C17.0402 58.8975 14.3377 56.0002 12.4632 52.5693C10.5888 49.1383 9.60318 45.2849 9.59787 41.3666C9.46336 45.4286 10.3819 49.4557 12.2624 53.0492C14.143 56.6427 16.9205 59.678 20.32 61.8547C26.6553 66.0318 33.3266 67.9701 39.9883 65.9736C40.3087 65.8766 40.6456 65.848 40.9775 65.8896C41.3095 65.9313 41.6292 66.0422 41.9163 66.2154C42.2035 66.3886 42.4518 66.6203 42.6454 66.8957C42.839 67.1711 42.9736 67.4842 43.0408 67.8151C43.0983 67.5207 43.0983 67.2178 43.0408 66.9234C42.9716 66.5945 42.8353 66.2837 42.6406 66.0108C42.4459 65.7379 42.197 65.509 41.9099 65.3385C41.6228 65.168 41.3037 65.0598 40.9728 65.0206C40.642 64.9815 40.3067 65.0123 39.9883 65.1111Z" fill="url(#paint7_linear_13_151)"/>
<path d="M55.1746 62.2133C55.1746 62.5798 55.0669 62.9381 54.865 63.2427C54.6631 63.5473 54.3762 63.7846 54.0406 63.9244C53.705 64.0642 53.3359 64.1003 52.98 64.0281C52.6241 63.9559 52.2974 63.7786 52.0414 63.5188C51.7854 63.2589 51.6115 62.9282 51.5419 62.5685C51.4722 62.2087 51.5099 61.8363 51.6501 61.4982C51.7904 61.1601 52.0269 60.8717 52.3296 60.6695C52.6324 60.4672 52.9878 60.3603 53.3508 60.3622C53.5911 60.3622 53.8291 60.4102 54.051 60.5033C54.2729 60.5964 54.4744 60.7329 54.6439 60.905C54.8133 61.077 54.9475 61.2811 55.0386 61.5057C55.1297 61.7302 55.1759 61.9707 55.1746 62.2133Z" fill="url(#paint8_linear_13_151)"/>
<path d="M57.4688 60.3622C58.1208 60.3622 58.6494 59.8285 58.6494 59.1701C58.6494 58.5117 58.1208 57.978 57.4688 57.978C56.8167 57.978 56.2881 58.5117 56.2881 59.1701C56.2881 59.8285 56.8167 60.3622 57.4688 60.3622Z" fill="url(#paint9_linear_13_151)"/>
<path d="M11.7288 28.2345C13.9196 24.5936 16.9832 21.5682 20.6369 19.4375C24.2907 17.3067 28.4171 16.1391 32.6354 16.0424C28.247 15.9628 23.9147 17.0468 20.071 19.1862C16.2273 21.3255 13.0066 24.4455 10.7305 28.2345C5.30704 37.1895 3.39684 63.2697 30.4084 69.4336C31.3683 69.6177 32.4242 69.7631 33.4321 69.8503C4.30874 64.5587 6.18055 37.4124 11.7288 28.2345Z" fill="url(#paint10_linear_13_151)"/>
<defs>
<linearGradient id="paint0_linear_13_151" x1="1.9975" y1="35.067" x2="67.9619" y2="35.067" gradientUnits="userSpaceOnUse">
<stop stop-color="#FA71CD"/>
<stop offset="1" stop-color="#C471F5"/>
</linearGradient>
<linearGradient id="paint1_linear_13_151" x1="2466.29" y1="1778.03" x2="2518.18" y2="4457.08" gradientUnits="userSpaceOnUse">
<stop offset="0.11" stop-color="#666666"/>
<stop offset="0.29" stop-color="#7C7C7C" stop-opacity="0.85"/>
<stop offset="0.63" stop-color="#B7B7B7" stop-opacity="0.47"/>
<stop offset="1" stop-color="white" stop-opacity="0"/>
</linearGradient>
<linearGradient id="paint2_linear_13_151" x1="38.1168" y1="12.1269" x2="28.8483" y2="54.9759" gradientUnits="userSpaceOnUse">
<stop stop-color="#764BA2"/>
<stop offset="1" stop-color="#667EEA"/>
</linearGradient>
<linearGradient id="paint3_linear_13_151" x1="3691.48" y1="1813.91" x2="1277.67" y2="2835.26" gradientUnits="userSpaceOnUse">
<stop offset="0.11" stop-color="#666666"/>
<stop offset="0.29" stop-color="#7C7C7C" stop-opacity="0.85"/>
<stop offset="0.63" stop-color="#B7B7B7" stop-opacity="0.47"/>
<stop offset="1" stop-color="white" stop-opacity="0"/>
</linearGradient>
<linearGradient id="paint4_linear_13_151" x1="1.9963" y1="18.2036" x2="67.9511" y2="18.2036" gradientUnits="userSpaceOnUse">
<stop stop-color="#4FACFE"/>
<stop offset="1" stop-color="#00F2FE"/>
</linearGradient>
<linearGradient id="paint5_linear_13_151" x1="2.00567" y1="23.0979" x2="67.9509" y2="23.0979" gradientUnits="userSpaceOnUse">
<stop stop-color="#00EDFF"/>
<stop offset="1" stop-color="#00F2FE" stop-opacity="0"/>
</linearGradient>
<linearGradient id="paint6_linear_13_151" x1="300.615" y1="390.446" x2="293.878" y2="420.773" gradientUnits="userSpaceOnUse">
<stop stop-color="#FA71CD"/>
<stop offset="1" stop-color="#C471F5"/>
</linearGradient>
<linearGradient id="paint7_linear_13_151" x1="20.8863" y1="53.9754" x2="41.3985" y2="57.038" gradientUnits="userSpaceOnUse">
<stop stop-color="#FF99F5"/>
<stop offset="0.99" stop-color="#C471F5" stop-opacity="0"/>
</linearGradient>
<linearGradient id="paint8_linear_13_151" x1="259.895" y1="290.158" x2="257.914" y2="305.295" gradientUnits="userSpaceOnUse">
<stop stop-color="#FA71CD"/>
<stop offset="1" stop-color="#C471F5"/>
</linearGradient>
<linearGradient id="paint9_linear_13_151" x1="200.52" y1="200.621" x2="199.245" y2="207.054" gradientUnits="userSpaceOnUse">
<stop stop-color="#FA71CD"/>
<stop offset="1" stop-color="#C471F5"/>
</linearGradient>
<linearGradient id="paint10_linear_13_151" x1="19.0048" y1="60.2556" x2="28.3697" y2="20.3561" gradientUnits="userSpaceOnUse">
<stop stop-color="#90A8FC"/>
<stop offset="1" stop-color="#667EEA" stop-opacity="0"/>
</linearGradient>
</defs>
</svg>
